<svg xmlns="http://www.w3.org/2000/svg" width="15.79" height="15.426" viewBox="0 0 15.79 15.426">
  <path id="arrow_forward_FILL0_wght400_GRAD0_opsz48_1_" data-name="arrow_forward_FILL0_wght400_GRAD0_opsz48 (1)" d="M15.518,23.862a.794.794,0,0,1,0-1.056L21.2,17.123H8.754a.754.754,0,1,1,0-1.509H21.2L15.518,9.932a.827.827,0,0,1,0-1.081.794.794,0,0,1,1.056,0l6.99,6.99a.766.766,0,0,1,.176.251.738.738,0,0,1,.05.277.772.772,0,0,1-.05.264.729.729,0,0,1-.176.264l-6.99,6.99a.675.675,0,0,1-.528.189.758.758,0,0,1-.528-.214Z" transform="translate(-8 -8.65)" fill="#fff"/>
</svg>
