<svg xmlns="http://www.w3.org/2000/svg" width="89.308" height="96.811" viewBox="0 0 89.308 96.811">
  <path id="hive_FILL0_wght400_GRAD0_opsz48" d="M136.781-798.074H124.675a7.062,7.062,0,0,1-3.69-.974,7.263,7.263,0,0,1-2.6-2.656l-6.414-11.5A6.982,6.982,0,0,1,111-816.71a6.982,6.982,0,0,1,.968-3.509l6.293-11.375-6.293-11.375a6.982,6.982,0,0,1-.968-3.509,6.982,6.982,0,0,1,.968-3.509l6.414-11.5a7.263,7.263,0,0,1,2.6-2.656,7.062,7.062,0,0,1,3.69-.974h12.106l6.409-11.254a7.263,7.263,0,0,1,2.6-2.656,7.061,7.061,0,0,1,3.69-.974h12.343a7.061,7.061,0,0,1,3.69.974,7.263,7.263,0,0,1,2.6,2.656l6.409,11.254h12.106a7.062,7.062,0,0,1,3.69.974,7.263,7.263,0,0,1,2.6,2.656l6.414,11.5a6.982,6.982,0,0,1,.968,3.509,6.982,6.982,0,0,1-.968,3.509l-6.293,11.375,6.293,11.375a6.982,6.982,0,0,1,.968,3.509,6.982,6.982,0,0,1-.968,3.509l-6.414,11.5a7.263,7.263,0,0,1-2.6,2.656,7.062,7.062,0,0,1-3.69.974H174.528l-6.409,11.254a7.263,7.263,0,0,1-2.6,2.656,7.062,7.062,0,0,1-3.69.974H149.482a7.062,7.062,0,0,1-3.69-.974,7.263,7.263,0,0,1-2.6-2.656Zm37.873-37.03h12.1l6.535-11.375-6.535-11.375h-12.1l-6.535,11.375ZM149.57-820.461H161.7l6.535-11.133-6.5-11.133H149.6l-6.535,11.133Zm.093-29.527H161.7l6.535-11.375L161.7-872.739H149.6l-6.535,11.375Zm-6.352,3.509-6.535-11.375h-12.1l-6.535,11.375,6.535,11.375h12.1Zm0,29.769-6.656-11.375h-12.1l-6.535,11.375,6.656,11.375h12.1ZM149.6-813.2l-6.535,11.375L149.6-790.45h12.1l6.535-11.375L161.645-813.2Zm25.05,7.866h12.1l6.535-11.375-6.535-11.375h-12.1l-6.172,11.375Z" transform="translate(-111 880)" fill="#9d695a"/>
</svg>
